<svg id="visual" viewBox="0 0 1920 1080" width="1920" height="1080" xmlns="http://www.w3.org/2000/svg" xmlns:xlink="http://www.w3.org/1999/xlink" version="1.1"><rect x="0" y="0" width="1920" height="1080" fill="#0d0d0d"></rect><path d="M0 590L320 590L320 550L640 550L640 763L960 763L960 655L1280 655L1280 595L1600 595L1600 629L1920 629L1920 589L1920 1081L1920 1081L1600 1081L1600 1081L1280 1081L1280 1081L960 1081L960 1081L640 1081L640 1081L320 1081L320 1081L0 1081Z" fill="#5c00a9"></path><path d="M0 707L320 707L320 744L640 744L640 730L960 730L960 770L1280 770L1280 726L1600 726L1600 702L1920 702L1920 789L1920 1081L1920 1081L1600 1081L1600 1081L1280 1081L1280 1081L960 1081L960 1081L640 1081L640 1081L320 1081L320 1081L0 1081Z" fill="#51008d"></path><path d="M0 843L320 843L320 869L640 869L640 945L960 945L960 847L1280 847L1280 884L1600 884L1600 954L1920 954L1920 886L1920 1081L1920 1081L1600 1081L1600 1081L1280 1081L1280 1081L960 1081L960 1081L640 1081L640 1081L320 1081L320 1081L0 1081Z" fill="#450073"></path></svg>