<svg id="visual" viewBox="0 0 1920 1080" width="1920" height="1080" xmlns="http://www.w3.org/2000/svg" xmlns:xlink="http://www.w3.org/1999/xlink" version="1.1"><rect x="0" y="0" width="1920" height="1080" fill="#141414"></rect><path d="M0 757L45.7 755.5C91.3 754 182.7 751 274.2 754.5C365.7 758 457.3 768 548.8 754.8C640.3 741.7 731.7 705.3 823 707C914.3 708.7 1005.7 748.3 1097 769.3C1188.3 790.3 1279.7 792.7 1371.2 772.2C1462.7 751.7 1554.3 708.3 1645.8 688C1737.3 667.7 1828.7 670.3 1874.3 671.7L1920 673L1920 1081L1874.3 1081C1828.7 1081 1737.3 1081 1645.8 1081C1554.3 1081 1462.7 1081 1371.2 1081C1279.7 1081 1188.3 1081 1097 1081C1005.7 1081 914.3 1081 823 1081C731.7 1081 640.3 1081 548.8 1081C457.3 1081 365.7 1081 274.2 1081C182.7 1081 91.3 1081 45.7 1081L0 1081Z" fill="#601bff"></path><path d="M0 799L45.7 788.7C91.3 778.3 182.7 757.7 274.2 747.2C365.7 736.7 457.3 736.3 548.8 735C640.3 733.7 731.7 731.3 823 746.5C914.3 761.7 1005.7 794.3 1097 813.2C1188.3 832 1279.7 837 1371.2 841.2C1462.7 845.3 1554.3 848.7 1645.8 846.8C1737.3 845 1828.7 838 1874.3 834.5L1920 831L1920 1081L1874.3 1081C1828.7 1081 1737.3 1081 1645.8 1081C1554.3 1081 1462.7 1081 1371.2 1081C1279.7 1081 1188.3 1081 1097 1081C1005.7 1081 914.3 1081 823 1081C731.7 1081 640.3 1081 548.8 1081C457.3 1081 365.7 1081 274.2 1081C182.7 1081 91.3 1081 45.7 1081L0 1081Z" fill="#6811e7"></path><path d="M0 826L45.7 839.7C91.3 853.3 182.7 880.7 274.2 879.5C365.7 878.3 457.3 848.7 548.8 841.2C640.3 833.7 731.7 848.3 823 864.5C914.3 880.7 1005.7 898.3 1097 898.8C1188.3 899.3 1279.7 882.7 1371.2 871.3C1462.7 860 1554.3 854 1645.8 862.5C1737.3 871 1828.7 894 1874.3 905.5L1920 917L1920 1081L1874.3 1081C1828.7 1081 1737.3 1081 1645.8 1081C1554.3 1081 1462.7 1081 1371.2 1081C1279.7 1081 1188.3 1081 1097 1081C1005.7 1081 914.3 1081 823 1081C731.7 1081 640.3 1081 548.8 1081C457.3 1081 365.7 1081 274.2 1081C182.7 1081 91.3 1081 45.7 1081L0 1081Z" fill="#6b07cf"></path><path d="M0 923L45.7 919.7C91.3 916.3 182.7 909.7 274.2 908C365.7 906.3 457.3 909.7 548.8 907.8C640.3 906 731.7 899 823 906C914.3 913 1005.7 934 1097 936.7C1188.3 939.3 1279.7 923.7 1371.2 911.2C1462.7 898.7 1554.3 889.3 1645.8 888C1737.3 886.7 1828.7 893.3 1874.3 896.7L1920 900L1920 1081L1874.3 1081C1828.7 1081 1737.3 1081 1645.8 1081C1554.3 1081 1462.7 1081 1371.2 1081C1279.7 1081 1188.3 1081 1097 1081C1005.7 1081 914.3 1081 823 1081C731.7 1081 640.3 1081 548.8 1081C457.3 1081 365.7 1081 274.2 1081C182.7 1081 91.3 1081 45.7 1081L0 1081Z" fill="#6b01b8"></path><path d="M0 975L45.7 971.2C91.3 967.3 182.7 959.7 274.2 959.5C365.7 959.3 457.3 966.7 548.8 977.2C640.3 987.7 731.7 1001.3 823 1005.5C914.3 1009.7 1005.7 1004.3 1097 999.3C1188.3 994.3 1279.7 989.7 1371.2 984.7C1462.7 979.7 1554.3 974.3 1645.8 973.3C1737.3 972.3 1828.7 975.7 1874.3 977.3L1920 979L1920 1081L1874.3 1081C1828.7 1081 1737.3 1081 1645.8 1081C1554.3 1081 1462.7 1081 1371.2 1081C1279.7 1081 1188.3 1081 1097 1081C1005.7 1081 914.3 1081 823 1081C731.7 1081 640.3 1081 548.8 1081C457.3 1081 365.7 1081 274.2 1081C182.7 1081 91.3 1081 45.7 1081L0 1081Z" fill="#6800a3"></path></svg>